<svg width="56" height="56" viewBox="0 0 56 56" fill="none" xmlns="http://www.w3.org/2000/svg">
<path d="M42 4.66669H14C12.7624 4.66669 11.5754 5.15835 10.7002 6.03352C9.82504 6.90869 9.33337 8.09568 9.33337 9.33335V46.6667C9.33337 47.9044 9.82504 49.0913 10.7002 49.9665C11.5754 50.8417 12.7624 51.3334 14 51.3334H42C43.2377 51.3334 44.4247 50.8417 45.2999 49.9665C46.175 49.0913 46.6667 47.9044 46.6667 46.6667V9.33335C46.6667 8.09568 46.175 6.90869 45.2999 6.03352C44.4247 5.15835 43.2377 4.66669 42 4.66669Z" stroke="#6E8C03" stroke-width="4" stroke-linecap="round" stroke-linejoin="round"/>
<path d="M21 37.3334L21.812 36.7734C25.2303 34.4097 30.772 34.4097 34.188 36.7734L35 37.3334" stroke="#6E8C03" stroke-width="4" stroke-linecap="round" stroke-linejoin="round"/>
<path d="M18.6667 16.3333H18.69" stroke="#6E8C03" stroke-width="4" stroke-linecap="round" stroke-linejoin="round"/>
<path d="M37.3333 16.3333H37.3566" stroke="#6E8C03" stroke-width="4" stroke-linecap="round" stroke-linejoin="round"/>
<path d="M28 16.3333H28.0233" stroke="#6E8C03" stroke-width="4" stroke-linecap="round" stroke-linejoin="round"/>
<path d="M28 25.6667H28.0233" stroke="#6E8C03" stroke-width="4" stroke-linecap="round" stroke-linejoin="round"/>
<path d="M37.3333 25.6667H37.3566" stroke="#6E8C03" stroke-width="4" stroke-linecap="round" stroke-linejoin="round"/>
<path d="M18.6667 25.6667H18.69" stroke="#6E8C03" stroke-width="4" stroke-linecap="round" stroke-linejoin="round"/>
<path d="M23.3333 51.3334V36.1667M32.6666 36.1667V51.3334" stroke="#6E8C03" stroke-width="4" stroke-linecap="round" stroke-linejoin="round"/>
</svg> 